<svg width="844" height="302" viewBox="0 0 844 302" fill="none" xmlns="http://www.w3.org/2000/svg">
<path d="M130.108 115.175H144.167C145.729 115.175 146.249 116.217 145.729 117.779C141.042 128.714 128.546 162.038 126.463 168.807C125.421 173.494 115.528 203.694 115.528 206.818C115.528 209.422 116.57 209.943 118.652 209.943C122.297 209.943 132.711 197.446 134.794 194.842C135.835 193.801 136.356 193.28 137.397 194.061L140.522 196.404C141.042 196.925 141.042 197.966 140.522 199.529C137.918 204.736 119.694 226.605 99.3865 226.605C93.6588 226.605 91.0553 224.001 91.0553 219.836C91.0553 216.191 92.6174 210.463 101.99 183.387L100.428 182.866C89.4932 199.008 68.1446 226.605 46.796 226.605C40.0269 226.605 30.6543 218.794 30.6543 207.86C30.6543 172.973 67.1032 115.696 101.99 115.696C113.445 115.696 118.652 120.382 121.777 124.548L125.942 117.258C126.984 115.696 128.546 115.175 130.108 115.175ZM62.4169 208.901C72.3102 208.901 100.428 170.89 105.114 160.997C108.759 153.707 111.363 145.897 111.363 137.565C111.363 133.4 106.676 126.11 99.3865 126.11C92.6174 126.11 84.8069 132.358 78.0379 141.991C63.4583 162.559 56.1685 185.99 56.1685 200.57C56.1685 206.298 58.2513 208.901 62.4169 208.901Z" fill="#F6F6F6"/>
<path d="M180.823 198.487L172.492 222.439C171.971 223.481 171.45 224.001 168.847 224.001H152.185C149.841 224.001 149.581 222.179 150.102 220.617L167.805 172.452C173.533 155.79 179.782 139.648 179.782 136.003C179.782 133.4 178.219 131.838 175.876 131.838C171.19 131.838 161.036 141.21 156.871 145.376C156.35 146.417 155.309 146.417 154.528 145.636L151.664 142.772C150.622 142.252 150.102 141.21 151.143 140.169C154.788 135.483 171.971 115.696 195.663 115.696C203.213 115.696 205.556 120.903 205.556 124.548C205.556 130.276 198.006 147.979 193.32 159.435L194.882 160.476C202.692 148.5 226.644 115.696 251.378 115.696C261.011 115.696 266.218 122.986 266.218 130.276C266.218 137.045 262.833 149.281 252.159 176.097C245.39 193.28 241.745 203.173 241.745 206.818C241.745 209.422 242.786 210.984 244.869 210.984C248.514 210.984 258.407 202.132 261.011 198.487C262.052 197.966 263.093 197.966 264.135 199.008L266.738 201.091C267.78 201.611 267.78 202.653 266.738 204.215C263.614 208.38 245.39 226.605 223.52 226.605C217.793 226.605 214.668 223.481 214.668 218.794C214.668 214.108 221.958 196.404 230.289 173.494C234.195 162.559 241.484 142.772 241.484 139.648C241.484 135.483 239.141 133.4 235.496 133.4C227.686 133.4 205.816 154.228 194.882 171.932C189.675 180.263 184.989 188.073 180.823 198.487Z" fill="#F6F6F6"/>
<path d="M374.073 115.175H388.132C389.694 115.175 390.215 116.217 389.694 117.779C385.008 128.714 372.511 162.038 370.428 168.807C369.387 173.494 359.494 203.694 359.494 206.818C359.494 209.422 360.535 209.943 362.618 209.943C366.263 209.943 376.677 197.446 378.76 194.842C379.801 193.801 380.322 193.28 381.363 194.061L384.487 196.404C385.008 196.925 385.008 197.966 384.487 199.529C381.884 204.736 363.659 226.605 343.352 226.605C337.624 226.605 335.021 224.001 335.021 219.836C335.021 216.191 336.583 210.463 345.956 183.387L344.393 182.866C333.459 199.008 312.11 226.605 290.762 226.605C283.992 226.605 274.62 218.794 274.62 207.86C274.62 172.973 311.069 115.696 345.956 115.696C357.411 115.696 362.618 120.382 365.742 124.548L369.908 117.258C370.949 115.696 372.511 115.175 374.073 115.175ZM306.382 208.901C316.276 208.901 344.393 170.89 349.08 160.997C352.725 153.707 355.328 145.897 355.328 137.565C355.328 133.4 350.642 126.11 343.352 126.11C336.583 126.11 328.773 132.358 322.003 141.991C307.424 162.559 300.134 185.99 300.134 200.57C300.134 206.298 302.217 208.901 306.382 208.901Z" fill="#F6F6F6"/>
<path d="M396.15 191.197L439.368 73.5195C442.753 64.4073 442.492 57.6382 434.682 57.6382H426.351C425.309 57.6382 425.049 56.8571 425.309 55.5554L426.871 49.5674C427.132 48.7863 427.652 48.2656 428.954 48.2656H469.048C471.391 48.2656 471.912 49.8277 471.131 52.1709L418.54 194.322C415.937 201.091 413.333 209.943 418.54 209.943C423.747 209.943 434.161 200.049 437.285 196.404C438.327 195.884 438.847 195.884 439.889 196.925L443.013 199.529C443.534 200.57 444.054 201.091 443.013 202.653C441.972 204.215 419.582 226.605 396.671 226.605C391.985 226.605 387.819 222.439 387.819 217.232C387.819 213.067 393.547 198.487 396.15 191.197Z" fill="#F6F6F6"/>
<path d="M503.365 217.753H504.667C509.353 209.422 524.974 178.701 528.098 165.683C529.14 161.518 531.223 155.269 531.223 149.021C531.223 144.335 530.181 140.169 529.14 137.045C528.098 133.921 526.536 130.276 526.536 126.631C526.536 121.944 530.181 115.696 539.554 115.696C549.447 115.696 552.571 122.986 552.571 132.358C552.571 143.814 543.199 166.725 534.347 184.428C521.329 209.943 493.732 255.764 471.082 277.633C463.532 284.923 447.911 301.325 431.769 301.325C420.314 301.325 415.107 295.077 415.107 287.787C415.107 279.976 421.355 274.769 427.083 274.249C431.769 274.249 433.852 276.332 436.455 278.935C438.538 281.018 441.662 282.58 443.745 282.58C446.349 282.58 450.514 281.539 455.461 278.154C467.437 269.563 477.07 254.983 481.236 248.474C484.099 243.788 484.88 237.54 483.839 230.77C483.318 222.439 477.33 153.186 474.206 141.731C472.904 137.045 472.384 134.962 469.259 134.962C464.573 134.962 457.804 147.979 455.721 153.707C455.201 155.269 454.68 155.269 453.378 155.009L449.473 153.707C448.432 153.707 448.432 152.666 448.952 150.583C449.994 147.459 460.928 115.696 483.839 115.696C493.212 115.696 498.419 122.465 499.981 144.335C502.063 174.014 503.105 204.736 503.365 217.753Z" fill="#F6F6F6"/>
<path d="M607.466 132.879L584.556 190.156C582.473 195.884 579.869 202.132 579.869 205.256C579.869 207.86 581.431 209.943 584.556 209.943C590.544 209.943 606.685 196.925 608.247 195.363C609.289 194.322 609.809 194.322 610.851 195.363L613.715 198.487C614.756 199.008 614.756 199.529 614.235 200.57C611.111 204.736 587.68 226.605 564.248 226.605C556.438 226.605 553.314 222.439 553.314 218.794C553.314 214.108 554.355 208.901 555.917 204.215L583.514 132.879H564.248C562.686 132.879 562.166 132.358 562.686 130.276L564.769 123.507C565.29 121.944 565.81 121.424 567.372 121.424H587.419L598.094 93.8268C599.135 91.2232 600.177 90.7026 604.863 90.1819C610.07 89.6612 620.484 84.9749 622.567 83.4128C624.129 82.8921 625.691 81.8507 626.732 81.8507C628.294 81.8507 629.336 84.4542 628.294 87.0577L611.372 121.424H638.188C639.229 121.424 639.75 122.465 639.229 124.027L637.146 131.577C636.886 132.619 636.105 132.879 634.543 132.879H607.466Z" fill="#F6F6F6"/>
<path d="M679.677 151.104L665.097 190.677C661.452 200.57 660.411 204.736 660.411 207.339C660.411 209.422 661.452 210.984 663.535 210.984C668.742 210.463 682.28 196.404 683.842 194.322C684.363 193.28 685.404 193.28 686.185 194.061L689.049 196.925C690.091 197.966 690.611 198.487 689.57 199.529C688.008 201.611 669.783 226.605 641.405 226.605C635.938 226.605 633.855 223.481 633.855 219.315C633.855 214.108 638.021 201.872 648.435 172.973L655.724 152.666C658.328 145.636 659.89 140.69 659.89 137.565C659.89 135.483 658.849 134.441 656.766 134.441C652.6 134.441 640.624 147.979 636.979 152.145C635.938 153.186 634.896 153.186 633.855 152.145L631.252 149.802C630.21 149.021 629.69 148.5 630.21 147.459C631.772 145.897 655.204 115.696 678.115 115.696C684.363 115.696 687.487 118.82 687.487 124.027C687.487 129.234 684.103 138.867 679.677 151.104ZM684.623 84.1938C674.209 84.1938 669.523 76.6437 669.523 70.135C669.523 63.1055 676.032 56.0761 684.103 56.0761C694.517 56.0761 699.984 62.5848 699.984 69.0936C699.984 75.0816 693.996 84.1938 684.623 84.1938Z" fill="#F6F6F6"/>
<path d="M756.478 199.008L760.122 201.611C761.164 202.132 761.685 202.653 760.643 204.215C756.738 209.943 739.815 226.605 720.549 226.605C710.135 226.605 697.118 218.534 697.118 200.83C697.118 164.381 725.496 115.696 757.779 115.696C771.318 115.696 775.743 125.589 775.743 130.276C775.743 137.565 770.016 143.293 764.809 143.293C760.643 143.293 757.519 141.731 755.957 137.045C754.395 133.4 752.052 129.234 747.886 129.234C742.158 129.234 737.212 135.483 732.265 146.938C725.756 162.559 722.111 178.701 722.111 192.759C722.111 205.777 726.017 211.505 732.786 211.505C741.117 211.505 751.271 203.694 754.395 200.049C754.915 199.008 755.957 198.487 756.478 199.008Z" fill="#F6F6F6"/>
<path d="M828.167 191.718C828.167 212.025 812.026 226.605 788.594 226.605C771.411 226.605 762.559 220.356 762.559 211.505C762.559 205.256 766.725 200.57 772.452 200.57C778.701 200.57 782.866 204.736 784.949 210.984C786.511 215.15 788.594 217.753 793.28 217.753C800.57 217.753 806.298 212.025 806.298 201.091C806.819 192.239 800.049 184.689 794.582 175.316C789.375 166.464 784.429 159.955 784.949 149.021C784.949 132.358 799.008 115.696 823.481 115.696C832.333 115.696 843.788 119.341 843.788 130.276C843.788 137.045 839.623 141.21 833.895 141.21C829.209 141.21 825.043 139.128 823.481 132.358C822.439 129.234 821.398 125.069 817.233 125.069C812.026 125.069 806.298 128.714 806.298 140.169C806.298 149.021 815.41 159.695 818.274 163.6C823.481 170.63 828.167 179.742 828.167 191.718Z" fill="#F6F6F6"/>
<path d="M26.1022 136.892C11.8423 136.892 -0.000742846 129.641 -0.000742846 121.907C-0.000742846 118.039 1.44942 115.622 5.07483 112.722C9.9087 108.613 16.6761 105.955 20.3015 104.505C16.6761 101.846 15.7094 99.6707 15.7094 97.2537C15.7094 94.5951 19.0931 91.6948 26.1022 88.3111L26.3439 87.8277C20.7849 85.6524 16.4344 82.027 16.4344 73.6886C16.4344 64.7459 24.8937 50.7277 40.1204 50.7277C47.3712 50.7277 50.7549 54.5948 51.9634 55.9241C53.897 54.4739 58.0058 51.9362 62.1146 51.9362C65.9817 51.9362 67.4318 55.0782 67.4318 57.2534C67.4318 59.4287 65.9817 61.6039 63.0813 61.6039C61.1478 61.6039 59.9393 60.8788 58.9725 59.9121C58.4891 59.187 57.7641 58.7036 56.7973 58.7036C55.8305 58.7036 54.3804 59.4287 53.897 60.1538C54.3804 61.6039 54.622 64.2625 54.622 66.3169C54.622 72.1176 49.5465 86.1358 35.5282 88.3111C32.8696 88.7945 31.1778 89.0362 30.9361 89.0362C28.5191 90.2446 25.8605 92.6616 25.8605 94.5951C25.8605 95.8036 27.3107 97.2537 28.2774 97.9788C30.4527 99.5498 36.495 102.571 44.9543 107.647C52.2051 111.997 54.1387 116.106 54.1387 119.731C54.1387 122.632 52.9302 128.432 45.4377 132.541C40.8455 135.2 35.2865 136.892 26.1022 136.892ZM31.6611 84.5648C39.1536 84.5648 43.7458 70.5466 43.7458 61.9665C43.7458 57.2534 42.7791 54.5948 39.3953 54.5948C36.7367 54.5948 34.8032 56.045 32.7488 59.3078C28.0357 66.8003 27.3107 71.6342 27.3107 77.7974C27.3107 82.3896 28.7608 84.5648 31.6611 84.5648ZM29.0025 132.541C35.0449 132.541 42.5374 129.762 42.5374 124.082C42.5374 118.764 39.1536 116.468 34.0781 113.447C32.8696 112.722 25.1354 108.13 23.3227 106.921C15.951 110.305 11.3589 114.414 11.3589 119.973C11.3589 128.432 20.0598 132.541 29.0025 132.541Z" fill="#F6F6F6"/>
<path d="M26.1022 136.892C11.8423 136.892 -0.000742846 129.641 -0.000742846 121.907C-0.000742846 118.039 1.44942 115.622 5.07483 112.722C9.9087 108.613 16.6761 105.955 20.3015 104.505C16.6761 101.846 15.7094 99.6707 15.7094 97.2537C15.7094 94.5951 19.0931 91.6948 26.1022 88.3111L26.3439 87.8277C20.7849 85.6524 16.4344 82.027 16.4344 73.6886C16.4344 64.7459 24.8937 50.7277 40.1204 50.7277C47.3712 50.7277 50.7549 54.5948 51.9634 55.9241C53.897 54.4739 58.0058 51.9362 62.1146 51.9362C65.9817 51.9362 67.4318 55.0782 67.4318 57.2534C67.4318 59.4287 65.9817 61.6039 63.0813 61.6039C61.1478 61.6039 59.9393 60.8788 58.9725 59.9121C58.4891 59.187 57.7641 58.7036 56.7973 58.7036C55.8305 58.7036 54.3804 59.4287 53.897 60.1538C54.3804 61.6039 54.622 64.2625 54.622 66.3169C54.622 72.1176 49.5465 86.1358 35.5282 88.3111C32.8696 88.7945 31.1778 89.0362 30.9361 89.0362C28.5191 90.2446 25.8605 92.6616 25.8605 94.5951C25.8605 95.8036 27.3107 97.2537 28.2774 97.9788C30.4527 99.5498 36.495 102.571 44.9543 107.647C52.2051 111.997 54.1387 116.106 54.1387 119.731C54.1387 122.632 52.9302 128.432 45.4377 132.541C40.8455 135.2 35.2865 136.892 26.1022 136.892ZM31.6611 84.5648C39.1536 84.5648 43.7458 70.5466 43.7458 61.9665C43.7458 57.2534 42.7791 54.5948 39.3953 54.5948C36.7367 54.5948 34.8032 56.045 32.7488 59.3078C28.0357 66.8003 27.3107 71.6342 27.3107 77.7974C27.3107 82.3896 28.7608 84.5648 31.6611 84.5648ZM29.0025 132.541C35.0449 132.541 42.5374 129.762 42.5374 124.082C42.5374 118.764 39.1536 116.468 34.0781 113.447C32.8696 112.722 25.1354 108.13 23.3227 106.921C15.951 110.305 11.3589 114.414 11.3589 119.973C11.3589 128.432 20.0598 132.541 29.0025 132.541Z" fill="#F6F6F6"/>
<path d="M77.4999 102.208C70.3699 102.208 62.9982 96.7704 62.9982 85.6524C62.9982 75.5013 66.382 65.8336 73.1494 58.4619C77.9833 53.1446 83.7839 50.7277 90.3096 50.7277C97.3188 50.7277 105.295 55.0782 105.295 65.9544C105.295 73.6886 102.153 86.2567 94.9018 94.2326C90.3096 99.5498 84.7507 102.208 77.4999 102.208ZM75.808 95.6827C80.521 95.6827 84.8715 92.299 89.5846 84.444C94.0559 76.8306 97.8021 66.8003 97.8021 62.4498C97.8021 59.7912 96.1103 57.0117 92.6057 57.0117C87.651 57.0117 83.0588 61.2414 77.1373 71.1508C73.1494 77.9182 70.7324 85.1691 70.7324 90.0029C70.7324 93.2658 73.1494 95.6827 75.808 95.6827ZM132.142 67.1629L125.374 85.5316C123.682 90.1238 123.199 92.0573 123.199 93.2658C123.199 94.2326 123.682 94.9577 124.649 94.9577C127.066 94.716 133.35 88.1902 134.075 87.2235C134.317 86.7401 134.8 86.7401 135.163 87.1026L136.492 88.4319C136.975 88.9153 137.217 89.157 136.734 89.6404C136.009 90.6072 127.549 102.208 114.377 102.208C111.839 102.208 110.872 100.758 110.872 98.8248C110.872 96.4078 112.806 90.728 117.64 77.314L121.024 67.888C122.232 64.6251 122.957 62.329 122.957 60.8788C122.957 59.9121 122.474 59.4287 121.507 59.4287C119.573 59.4287 114.015 65.7127 112.323 67.6463C111.839 68.1296 111.356 68.1296 110.872 67.6463L109.664 66.5586C109.181 66.1961 108.939 65.9544 109.181 65.471C109.906 64.7459 120.782 50.7277 131.416 50.7277C134.317 50.7277 135.767 52.1779 135.767 54.5948C135.767 57.0117 134.196 61.4831 132.142 67.1629ZM134.438 36.1052C129.604 36.1052 127.429 32.6007 127.429 29.5795C127.429 26.3166 130.45 23.0538 134.196 23.0538C139.03 23.0538 141.568 26.0749 141.568 29.0961C141.568 31.8756 138.788 36.1052 134.438 36.1052ZM183.621 19.4284H201.265C202.957 19.4284 203.44 20.6368 203.078 21.4827C201.265 25.8332 181.93 82.1479 179.996 89.6404C179.271 93.2658 179.029 94.9577 180.721 94.9577C182.655 94.9577 187.73 89.6404 188.455 88.9153C188.939 88.4319 189.422 88.4319 189.785 88.7945L191.356 90.1238C191.597 90.3655 191.597 90.8489 191.356 91.3322C190.389 92.5407 181.688 102.208 172.02 102.208C169.361 102.208 167.911 101.242 167.911 99.0664C167.911 96.1661 170.328 88.9153 172.745 82.1479L171.537 81.6645C165.736 91.0906 156.31 102.208 147.609 102.208C142.292 102.208 138.666 97.3746 138.666 92.299C138.666 83.8397 144.225 70.0632 154.256 60.0329C157.398 56.8909 163.802 50.7277 172.262 50.7277C175.645 50.7277 178.787 52.1779 180.842 54.5948L188.939 28.371C189.664 26.1958 188.939 23.7788 185.797 23.7788H182.171C181.204 23.7788 180.963 23.2955 181.204 23.0538L181.688 20.1534C181.93 19.67 182.171 19.4284 183.621 19.4284ZM177.096 62.0873C177.096 58.3411 174.8 55.0782 170.57 55.0782C162.111 55.0782 150.993 80.6977 150.993 90.6072C150.993 93.2658 152.443 94.716 154.135 94.716C157.76 94.716 164.769 86.015 169.361 79.4893C172.745 74.8971 177.096 66.9212 177.096 62.0873ZM239.026 50.486H245.552C246.277 50.486 246.518 50.9694 246.277 51.6945C244.101 56.77 238.301 72.2384 237.334 75.3805C236.851 77.5557 232.258 91.5739 232.258 93.0241C232.258 94.2326 232.742 94.4743 233.709 94.4743C235.4 94.4743 240.234 88.6736 241.201 87.4651C241.685 86.9818 241.926 86.7401 242.41 87.1026L243.86 88.1902C244.101 88.4319 244.101 88.9153 243.86 89.6404C242.651 92.0573 234.192 102.208 224.766 102.208C222.107 102.208 220.899 101 220.899 99.0664C220.899 97.3746 221.624 94.716 225.974 82.1479L225.249 81.9062C220.174 89.3987 210.264 102.208 200.355 102.208C197.213 102.208 192.862 98.5831 192.862 93.5075C192.862 77.314 209.781 50.7277 225.974 50.7277C231.292 50.7277 233.709 52.9029 235.159 54.8365L237.092 51.4528C237.576 50.7277 238.301 50.486 239.026 50.486ZM207.606 93.9909C212.198 93.9909 225.249 76.3472 227.425 71.7551C229.116 68.3713 230.325 64.7459 230.325 60.8788C230.325 58.9453 228.15 55.5616 224.766 55.5616C221.624 55.5616 217.999 58.4619 214.856 62.9332C208.089 72.4801 204.705 83.3564 204.705 90.1238C204.705 92.7824 205.672 93.9909 207.606 93.9909Z" fill="#F6F6F6"/>
<defs>
<linearGradient id="paint0_linear_1067_791" x1="127.295" y1="0" x2="127.295" y2="145" gradientUnits="userSpaceOnUse">
<stop offset="0.225962" stop-color="#F6F6F6"/>
<stop offset="0.567308" stop-color="#4097FF"/>
<stop offset="0.798077" stop-color="#E7A0DC"/>
<stop offset="1" stop-color="#F61D2C"/>
</linearGradient>
</defs>
</svg>
