<svg xmlns="http://www.w3.org/2000/svg" width="512" height="512" viewBox="0 0 512 512">
  <path fill="#080808" fill-rule="evenodd" d="M274 64c-83 0-150 62-150 139 0 43 22 82 56 107-42 21-68 56-68 94 0 61 63 104 151 104 91 0 151-45 151-108 0-55-43-92-128-111-51-11-79-34-79-72 0-43 32-75 73-75 39 0 67 29 67 69 0 43-31 72-76 72h-19c-15 0-27 12-27 27s12 27 27 27h20c78 0 133-52 133-126 0-26-8-51-22-72h28c18 0 32-14 32-32s-14-32-32-32h-93c-14-7-29-11-45-11Zm-5 281c54 12 78 30 78 58 0 32-34 53-84 53-52 0-84-20-84-52 0-27 27-51 68-62 7 1 14 2 22 3Zm7-205c-38 0-69 31-69 69 0 39 31 70 69 70 39 0 70-31 70-70 0-38-31-69-70-69Zm0 54c9 0 16 7 16 15 0 9-7 16-16 16-8 0-15-7-15-16 0-8 7-15 15-15Z"/>
</svg>
