<svg width="325" height="155" viewBox="0 0 325 155" fill="none" xmlns="http://www.w3.org/2000/svg">
<path d="M34.4341 155C15.6229 155 0 145.432 0 135.226C0 130.123 1.913 126.934 6.69551 123.107C13.0722 117.685 21.9995 114.177 26.782 112.263C21.9995 108.755 20.7242 105.885 20.7242 102.695C20.7242 99.1872 25.1879 95.3601 34.4341 90.8951L34.7529 90.2572C27.4197 87.3868 21.6807 82.6029 21.6807 71.5998C21.6807 59.7994 32.8399 41.3014 52.9264 41.3014C62.4914 41.3014 66.9551 46.4043 68.5493 48.1584C71.0999 46.2449 76.5201 42.8961 81.9403 42.8961C87.0416 42.8961 88.9546 47.0422 88.9546 49.9125C88.9546 52.7829 87.0416 55.6533 83.2156 55.6533C80.665 55.6533 79.0708 54.6965 77.7955 53.4208C77.1578 52.464 76.2013 51.8261 74.9259 51.8261C73.6506 51.8261 71.7376 52.7829 71.0999 53.7397C71.7376 55.6533 72.0564 59.1615 72.0564 61.8724C72.0564 69.5268 65.3609 88.0247 46.8686 90.8951C43.3614 91.5329 41.1296 91.8519 40.8107 91.8519C37.6224 93.4465 34.1152 96.6358 34.1152 99.1872C34.1152 100.782 36.0282 102.695 37.3036 103.652C40.1731 105.725 48.1439 109.712 59.3031 116.409C68.8681 122.15 71.4188 127.572 71.4188 132.356C71.4188 136.183 69.8246 143.837 59.9408 149.259C53.8829 152.767 46.5497 155 34.4341 155ZM41.7672 85.9516C51.6511 85.9516 57.7089 67.4537 57.7089 56.1317C57.7089 49.9126 56.4336 46.4043 51.9699 46.4043C48.4627 46.4043 45.9121 48.3179 43.202 52.6235C36.9847 62.5103 36.0282 68.8889 36.0282 77.0216C36.0282 83.0813 37.9412 85.9516 41.7672 85.9516ZM38.2601 149.259C46.2309 149.259 56.1148 145.592 56.1148 138.097C56.1148 131.08 51.6511 128.05 44.9556 124.064C43.3614 123.107 33.1587 117.047 30.7675 115.453C21.043 119.918 14.9852 125.34 14.9852 132.675C14.9852 143.837 26.4632 149.259 38.2601 149.259Z" fill="#080808"/>
<path d="M34.4341 155C15.6229 155 0 145.432 0 135.226C0 130.123 1.913 126.934 6.69551 123.107C13.0722 117.685 21.9995 114.177 26.782 112.263C21.9995 108.755 20.7242 105.885 20.7242 102.695C20.7242 99.1872 25.1879 95.3601 34.4341 90.8951L34.7529 90.2572C27.4197 87.3868 21.6807 82.6029 21.6807 71.5998C21.6807 59.7994 32.8399 41.3014 52.9264 41.3014C62.4914 41.3014 66.9551 46.4043 68.5493 48.1584C71.0999 46.2449 76.5201 42.8961 81.9403 42.8961C87.0416 42.8961 88.9546 47.0422 88.9546 49.9125C88.9546 52.7829 87.0416 55.6533 83.2156 55.6533C80.665 55.6533 79.0708 54.6965 77.7955 53.4208C77.1578 52.464 76.2013 51.8261 74.9259 51.8261C73.6506 51.8261 71.7376 52.7829 71.0999 53.7397C71.7376 55.6533 72.0564 59.1615 72.0564 61.8724C72.0564 69.5268 65.3609 88.0247 46.8686 90.8951C43.3614 91.5329 41.1296 91.8519 40.8107 91.8519C37.6224 93.4465 34.1152 96.6358 34.1152 99.1872C34.1152 100.782 36.0282 102.695 37.3036 103.652C40.1731 105.725 48.1439 109.712 59.3031 116.409C68.8681 122.15 71.4188 127.572 71.4188 132.356C71.4188 136.183 69.8246 143.837 59.9408 149.259C53.8829 152.767 46.5497 155 34.4341 155ZM41.7672 85.9516C51.6511 85.9516 57.7089 67.4537 57.7089 56.1317C57.7089 49.9126 56.4336 46.4043 51.9699 46.4043C48.4627 46.4043 45.9121 48.3179 43.202 52.6235C36.9847 62.5103 36.0282 68.8889 36.0282 77.0216C36.0282 83.0813 37.9412 85.9516 41.7672 85.9516ZM38.2601 149.259C46.2309 149.259 56.1148 145.592 56.1148 138.097C56.1148 131.08 51.6511 128.05 44.9556 124.064C43.3614 123.107 33.1587 117.047 30.7675 115.453C21.043 119.918 14.9852 125.34 14.9852 132.675C14.9852 143.837 26.4632 149.259 38.2601 149.259Z" fill="url(#paint0_linear_19402_11322)"/>
<path d="M102.236 109.234C92.8304 109.234 83.106 102.058 83.106 87.3868C83.106 73.9918 87.5697 61.2346 96.497 51.5072C102.874 44.4907 110.526 41.3014 119.134 41.3014C128.38 41.3014 138.902 47.0422 138.902 61.394C138.902 71.5998 134.757 88.1842 125.192 98.7089C119.134 105.725 111.801 109.234 102.236 109.234ZM100.004 100.622C106.221 100.622 111.96 96.1574 118.178 85.7922C124.076 75.7459 129.018 62.5103 129.018 56.7695C129.018 53.2613 126.786 49.5936 122.163 49.5936C115.627 49.5936 109.569 55.1749 101.758 68.251C96.497 77.1811 93.3087 86.749 93.3087 93.1276C93.3087 97.4331 96.497 100.622 100.004 100.622Z" fill="#080808"/>
<path d="M174.317 62.9887L165.39 87.2274C163.158 93.287 162.521 95.8385 162.521 97.4331C162.521 98.7089 163.158 99.6656 164.434 99.6656C167.622 99.3467 175.912 90.7356 176.868 89.4599C177.187 88.822 177.825 88.822 178.303 89.3004L180.056 91.0545C180.694 91.6924 181.013 92.0113 180.375 92.6492C179.419 93.9249 168.26 109.234 150.883 109.234C147.535 109.234 146.26 107.32 146.26 104.769C146.26 101.579 148.811 94.0844 155.187 76.3837L159.651 63.9455C161.245 59.6399 162.202 56.6101 162.202 54.6965C162.202 53.4208 161.564 52.7829 160.289 52.7829C157.738 52.7829 150.405 61.0751 148.173 63.6265C147.535 64.2644 146.898 64.2644 146.26 63.6265L144.666 62.1914C144.028 61.713 143.709 61.394 144.028 60.7562C144.985 59.7994 159.332 41.3014 173.361 41.3014C177.187 41.3014 179.1 43.215 179.1 46.4043C179.1 49.5936 177.027 55.4938 174.317 62.9887ZM177.346 22.0062C170.97 22.0062 168.1 17.3817 168.1 13.3951C168.1 9.0895 172.086 4.78395 177.027 4.78395C183.404 4.78395 186.752 8.77058 186.752 12.7572C186.752 16.4249 183.085 22.0062 177.346 22.0062Z" fill="#080808"/>
<path d="M242.228 0H265.503C267.734 0 268.372 1.59465 267.894 2.7109C265.503 8.45164 239.996 82.7623 237.445 92.6492C236.489 97.4331 236.17 99.6656 238.402 99.6656C240.952 99.6656 247.648 92.6492 248.604 91.6924C249.242 91.0545 249.88 91.0545 250.358 91.5329L252.43 93.287C252.749 93.606 252.749 94.2438 252.43 94.8817C251.155 96.4763 239.677 109.234 226.924 109.234C223.417 109.234 221.504 107.958 221.504 105.087C221.504 101.26 224.692 91.6924 227.88 82.7623L226.286 82.1245C218.634 94.5628 206.2 109.234 194.722 109.234C187.707 109.234 182.925 102.855 182.925 96.1574C182.925 84.9949 190.258 66.8158 203.489 53.5802C207.634 49.4342 216.083 41.3014 227.243 41.3014C231.706 41.3014 235.851 43.215 238.561 46.4043L249.242 11.8004C250.199 8.93004 249.242 5.74073 245.097 5.74073H240.315C239.039 5.74073 238.721 5.10288 239.039 4.78395L239.677 0.956787C239.996 0.318926 240.315 0 242.228 0ZM233.619 56.2912C233.619 51.3477 230.59 47.0422 225.011 47.0422C213.852 47.0422 199.185 80.8488 199.185 93.9249C199.185 97.4331 201.098 99.3467 203.33 99.3467C208.113 99.3467 217.359 87.8652 223.417 79.2541C227.88 73.1944 233.619 62.6698 233.619 56.2912Z" fill="#080808"/>
<path d="M315.315 40.9825H323.924C324.88 40.9825 325.199 41.6204 324.88 42.5772C322.011 49.2747 314.359 69.6862 313.084 73.8323C312.446 76.7027 306.388 95.2006 306.388 97.1142C306.388 98.7088 307.026 99.0278 308.301 99.0278C310.533 99.0278 316.91 91.3735 318.185 89.7788C318.823 89.1409 319.141 88.822 319.779 89.3004L321.692 90.7356C322.011 91.0545 322.011 91.6924 321.692 92.6492C320.098 95.8385 308.939 109.234 296.504 109.234C292.997 109.234 291.403 107.639 291.403 105.087C291.403 102.855 292.359 99.3467 298.098 82.7623L297.142 82.4434C290.446 92.3303 277.374 109.234 264.302 109.234C260.157 109.234 254.418 104.45 254.418 97.7521C254.418 76.3837 276.737 41.3014 298.098 41.3014C305.113 41.3014 308.301 44.1718 310.214 46.7233L312.765 42.2582C313.402 41.3014 314.359 40.9825 315.315 40.9825ZM273.867 98.3899C279.925 98.3899 297.142 75.108 300.011 69.0484C302.243 64.5833 303.837 59.7994 303.837 54.6965C303.837 52.1451 300.968 47.68 296.504 47.68C292.359 47.68 287.577 51.5072 283.432 57.4074C274.505 70.0051 270.041 84.357 270.041 93.287C270.041 96.7953 271.316 98.3899 273.867 98.3899Z" fill="#080808"/>
<path d="M101.263 127.839L101.077 128.964H94.0403L94.2363 127.839H101.263ZM93.9061 143.692L96.95 125.372C97.0738 124.574 97.3627 123.893 97.8167 123.328C98.2776 122.764 98.8313 122.334 99.478 122.038C100.125 121.742 100.795 121.594 101.49 121.594C101.855 121.594 102.157 121.622 102.398 121.677C102.639 121.732 102.849 121.794 103.027 121.863L102.491 122.977C102.34 122.936 102.178 122.895 102.006 122.854C101.834 122.812 101.621 122.792 101.366 122.792C100.575 122.792 99.8769 123.036 99.2716 123.524C98.6731 124.006 98.3017 124.687 98.1572 125.568L95.1443 143.692H93.9061Z" fill="#080808"/>
<path d="M104.876 144.033C103.962 144.033 103.153 143.851 102.452 143.486C101.757 143.121 101.238 142.588 100.894 141.886C100.55 141.184 100.457 140.331 100.615 139.326C100.732 138.666 100.949 138.084 101.265 137.582C101.581 137.08 102.015 136.646 102.565 136.282C103.115 135.917 103.79 135.618 104.588 135.384C105.392 135.143 106.331 134.957 107.404 134.826C108.23 134.73 108.966 134.634 109.612 134.537C110.259 134.441 110.782 134.293 111.181 134.094C111.58 133.894 111.814 133.595 111.883 133.196L111.986 132.535C112.178 131.386 111.982 130.471 111.398 129.79C110.813 129.101 109.881 128.757 108.601 128.757C107.473 128.757 106.462 129.012 105.568 129.521C104.674 130.023 104.006 130.66 103.566 131.431L102.472 130.987C102.899 130.23 103.439 129.6 104.092 129.098C104.753 128.596 105.475 128.221 106.259 127.973C107.05 127.725 107.855 127.601 108.674 127.601C109.382 127.601 110.042 127.701 110.655 127.901C111.267 128.1 111.79 128.403 112.223 128.809C112.663 129.215 112.976 129.734 113.162 130.368C113.355 130.994 113.375 131.744 113.224 132.618L111.387 143.692H110.128L110.613 140.833H110.521C110.149 141.425 109.681 141.965 109.117 142.454C108.56 142.935 107.924 143.321 107.208 143.61C106.493 143.892 105.716 144.033 104.876 144.033ZM105.114 142.867C106.104 142.867 107.026 142.626 107.879 142.144C108.739 141.656 109.461 140.988 110.046 140.142C110.637 139.295 111.019 138.336 111.191 137.262L111.594 134.93C111.408 135.067 111.157 135.191 110.84 135.301C110.524 135.404 110.17 135.497 109.778 135.58C109.392 135.655 108.99 135.724 108.57 135.786C108.158 135.841 107.755 135.893 107.363 135.941C106.187 136.079 105.213 136.292 104.443 136.581C103.673 136.863 103.078 137.235 102.658 137.696C102.245 138.157 101.98 138.714 101.864 139.368C101.692 140.448 101.912 141.301 102.524 141.927C103.143 142.554 104.006 142.867 105.114 142.867Z" fill="#080808"/>
<path d="M115.212 143.692L117.854 127.839H119.082L118.669 130.233H118.793C119.24 129.442 119.873 128.812 120.691 128.345C121.517 127.87 122.452 127.632 123.498 127.632C124.64 127.632 125.517 127.908 126.129 128.458C126.741 129.009 127.13 129.755 127.295 130.698H127.408C127.862 129.762 128.536 129.019 129.431 128.468C130.332 127.911 131.371 127.632 132.547 127.632C134.074 127.632 135.161 128.117 135.807 129.088C136.461 130.051 136.647 131.372 136.365 133.051L134.59 143.692H133.331L135.106 133.051C135.319 131.723 135.181 130.684 134.693 129.934C134.205 129.177 133.348 128.799 132.124 128.799C130.817 128.799 129.737 129.208 128.884 130.027C128.031 130.846 127.501 131.888 127.295 133.154L125.53 143.692H124.272L126.057 132.968C126.256 131.73 126.122 130.725 125.654 129.955C125.186 129.184 124.33 128.799 123.085 128.799C122.253 128.799 121.493 128.991 120.805 129.377C120.117 129.762 119.546 130.292 119.092 130.966C118.638 131.64 118.342 132.415 118.204 133.288L116.471 143.692H115.212Z" fill="#080808"/>
<path d="M138.422 143.692L141.064 127.839H142.312L139.671 143.692H138.422ZM142.281 125.021C141.986 125.021 141.738 124.921 141.539 124.722C141.346 124.515 141.263 124.264 141.291 123.968C141.305 123.721 141.415 123.504 141.621 123.318C141.828 123.132 142.065 123.039 142.333 123.039C142.629 123.039 142.873 123.143 143.066 123.349C143.258 123.549 143.344 123.793 143.324 124.082C143.303 124.336 143.19 124.557 142.983 124.742C142.784 124.928 142.55 125.021 142.281 125.021Z" fill="#080808"/>
<path d="M148.258 122.554L144.75 143.692H143.491L146.999 122.554H148.258Z" fill="#080808"/>
<path d="M148.528 149.637C148.212 149.637 147.906 149.603 147.61 149.534C147.321 149.465 147.06 149.376 146.826 149.266L147.373 148.161C147.964 148.409 148.525 148.492 149.054 148.409C149.591 148.334 150.093 148.082 150.561 147.656C151.035 147.229 151.483 146.624 151.902 145.839L152.955 143.857L149.859 127.839H151.149L153.811 142.082H153.925L161.323 127.839H162.736L152.965 146.386C152.58 147.109 152.153 147.711 151.686 148.192C151.218 148.674 150.716 149.035 150.179 149.276C149.649 149.517 149.099 149.637 148.528 149.637Z" fill="#080808"/>
<path d="M183.524 127.839L175.156 143.692H173.732L170.647 127.839H171.937L174.599 142.072H174.712L182.11 127.839H183.524Z" fill="#080808"/>
<path d="M182.394 149.637L186.026 127.839H187.253L186.676 131.379H186.83C187.188 130.698 187.635 130.072 188.172 129.501C188.715 128.929 189.351 128.472 190.081 128.128C190.817 127.777 191.639 127.601 192.547 127.601C193.826 127.601 194.882 127.952 195.714 128.654C196.547 129.356 197.121 130.323 197.438 131.554C197.754 132.786 197.781 134.204 197.52 135.807C197.252 137.403 196.75 138.821 196.014 140.059C195.284 141.291 194.39 142.261 193.331 142.97C192.272 143.672 191.109 144.023 189.843 144.023C188.942 144.023 188.179 143.851 187.553 143.507C186.934 143.163 186.445 142.705 186.087 142.134C185.73 141.556 185.482 140.923 185.345 140.235H185.221L183.652 149.637H182.394ZM185.943 135.797C185.723 137.145 185.723 138.353 185.943 139.419C186.17 140.479 186.61 141.318 187.264 141.938C187.924 142.55 188.787 142.856 189.854 142.856C190.934 142.856 191.914 142.547 192.794 141.927C193.682 141.301 194.425 140.455 195.023 139.388C195.628 138.322 196.041 137.125 196.261 135.797C196.481 134.469 196.481 133.275 196.261 132.215C196.041 131.155 195.604 130.319 194.951 129.707C194.297 129.088 193.424 128.778 192.33 128.778C191.257 128.778 190.277 129.084 189.389 129.697C188.502 130.302 187.759 131.135 187.161 132.194C186.569 133.247 186.163 134.448 185.943 135.797Z" fill="#080808"/>
<path d="M202.039 133.412L200.336 143.692H199.078L201.719 127.839H202.947L202.534 130.347H202.658C203.153 129.528 203.855 128.871 204.763 128.376C205.671 127.88 206.689 127.632 207.817 127.632C208.876 127.632 209.774 127.859 210.51 128.314C211.246 128.768 211.772 129.415 212.089 130.254C212.405 131.087 212.467 132.081 212.275 133.237L210.531 143.692H209.272L211.005 133.288C211.226 131.94 211.012 130.856 210.366 130.037C209.726 129.212 208.749 128.799 207.435 128.799C206.548 128.799 205.723 128.991 204.959 129.377C204.202 129.762 203.566 130.302 203.05 130.997C202.534 131.685 202.197 132.49 202.039 133.412Z" fill="#080808"/>
<path d="M233.163 131.255L231.956 131.544C231.852 130.959 231.667 130.46 231.398 130.048C231.13 129.628 230.759 129.308 230.284 129.088C229.816 128.861 229.228 128.747 228.52 128.747C227.33 128.747 226.315 129.043 225.476 129.635C224.637 130.226 224.141 130.99 223.99 131.926C223.866 132.669 224.011 133.282 224.423 133.763C224.836 134.245 225.534 134.613 226.518 134.868L228.87 135.477C230.067 135.786 230.924 136.295 231.44 137.004C231.962 137.713 232.138 138.58 231.966 139.605C231.828 140.479 231.467 141.25 230.882 141.917C230.305 142.578 229.569 143.094 228.674 143.465C227.78 143.837 226.783 144.023 225.682 144.023C224.196 144.023 223.034 143.675 222.195 142.98C221.355 142.278 220.905 141.277 220.843 139.977L222.091 139.729C222.139 140.754 222.477 141.535 223.103 142.072C223.728 142.602 224.619 142.867 225.775 142.867C227.089 142.867 228.2 142.554 229.108 141.927C230.016 141.301 230.549 140.503 230.707 139.533C230.824 138.81 230.69 138.205 230.305 137.716C229.919 137.228 229.273 136.87 228.365 136.643L225.961 136.024C224.709 135.7 223.811 135.184 223.268 134.475C222.731 133.76 222.549 132.886 222.721 131.854C222.865 131.014 223.209 130.275 223.753 129.635C224.303 128.995 224.998 128.496 225.837 128.138C226.676 127.78 227.601 127.601 228.612 127.601C229.968 127.601 231.017 127.921 231.76 128.561C232.502 129.194 232.97 130.092 233.163 131.255Z" fill="#080808"/>
<path d="M240.328 144.023C238.897 144.023 237.711 143.668 236.768 142.96C235.826 142.251 235.169 141.281 234.798 140.049C234.426 138.817 234.371 137.414 234.633 135.838C234.894 134.255 235.417 132.845 236.201 131.606C236.985 130.368 237.945 129.39 239.08 128.675C240.215 127.959 241.439 127.601 242.753 127.601C243.64 127.601 244.449 127.78 245.178 128.138C245.914 128.496 246.533 129.009 247.035 129.676C247.537 130.337 247.885 131.138 248.077 132.081C248.27 133.024 248.27 134.083 248.077 135.26L247.933 136.044H235.386L235.582 134.899H246.86C247.052 133.756 246.997 132.724 246.695 131.802C246.392 130.873 245.89 130.137 245.188 129.593C244.493 129.05 243.64 128.778 242.629 128.778C241.597 128.778 240.614 129.077 239.678 129.676C238.75 130.268 237.952 131.059 237.284 132.05C236.624 133.041 236.184 134.131 235.964 135.322L235.84 135.962C235.62 137.324 235.647 138.525 235.922 139.564C236.204 140.596 236.727 141.404 237.491 141.989C238.254 142.567 239.252 142.856 240.483 142.856C241.343 142.856 242.106 142.712 242.774 142.423C243.448 142.127 244.019 141.769 244.487 141.349C244.961 140.93 245.333 140.524 245.601 140.131L246.643 140.596C246.327 141.126 245.873 141.656 245.281 142.185C244.689 142.708 243.977 143.145 243.145 143.496C242.313 143.847 241.374 144.023 240.328 144.023Z" fill="#080808"/>
<path d="M249.563 143.692L252.204 127.839H253.432L253.019 130.316H253.133C253.6 129.504 254.288 128.854 255.196 128.365C256.104 127.87 257.081 127.622 258.127 127.622C258.244 127.622 258.354 127.622 258.457 127.622C258.56 127.622 258.663 127.625 258.766 127.632L258.55 128.902C258.467 128.895 258.367 128.885 258.251 128.871C258.14 128.85 258.003 128.84 257.838 128.84C256.957 128.84 256.142 129.029 255.392 129.408C254.643 129.786 254.017 130.309 253.514 130.976C253.012 131.637 252.692 132.394 252.555 133.247L250.821 143.692H249.563Z" fill="#080808"/>
<path d="M272.724 127.839L264.356 143.692H262.932L259.847 127.839H261.137L263.799 142.072H263.912L271.31 127.839H272.724Z" fill="#080808"/>
<path d="M272.625 143.692L275.267 127.839H276.515L273.874 143.692H272.625ZM276.484 125.021C276.188 125.021 275.941 124.921 275.741 124.722C275.549 124.515 275.466 124.264 275.494 123.968C275.508 123.721 275.618 123.504 275.824 123.318C276.03 123.132 276.268 123.039 276.536 123.039C276.832 123.039 277.076 123.143 277.268 123.349C277.461 123.549 277.547 123.793 277.526 124.082C277.506 124.336 277.392 124.557 277.186 124.742C276.986 124.928 276.753 125.021 276.484 125.021Z" fill="#080808"/>
<path d="M283.596 144.023C282.227 144.023 281.092 143.665 280.191 142.949C279.29 142.234 278.657 141.257 278.292 140.018C277.934 138.779 277.883 137.379 278.137 135.817C278.392 134.241 278.911 132.834 279.695 131.596C280.48 130.357 281.446 129.384 282.595 128.675C283.744 127.959 284.982 127.601 286.309 127.601C287.321 127.601 288.204 127.808 288.961 128.221C289.718 128.634 290.306 129.208 290.726 129.944C291.145 130.681 291.352 131.534 291.345 132.504H290.065C290.045 131.403 289.69 130.509 289.002 129.82C288.321 129.126 287.386 128.778 286.196 128.778C285.109 128.778 284.087 129.081 283.131 129.686C282.182 130.285 281.377 131.111 280.717 132.163C280.056 133.216 279.613 134.427 279.386 135.797C279.166 137.138 279.193 138.342 279.468 139.409C279.75 140.469 280.253 141.308 280.975 141.927C281.704 142.547 282.619 142.856 283.719 142.856C284.504 142.856 285.25 142.702 285.959 142.392C286.667 142.075 287.29 141.635 287.826 141.071C288.363 140.5 288.762 139.832 289.023 139.068H290.302C289.986 140.052 289.494 140.916 288.827 141.659C288.167 142.402 287.386 142.984 286.485 143.403C285.59 143.816 284.627 144.023 283.596 144.023Z" fill="#080808"/>
<path d="M298.497 144.023C297.066 144.023 295.88 143.668 294.937 142.96C293.995 142.251 293.338 141.281 292.967 140.049C292.595 138.817 292.54 137.414 292.802 135.838C293.063 134.255 293.586 132.845 294.37 131.606C295.154 130.368 296.114 129.39 297.249 128.675C298.384 127.959 299.608 127.601 300.922 127.601C301.809 127.601 302.618 127.78 303.347 128.138C304.083 128.496 304.702 129.009 305.204 129.676C305.706 130.337 306.054 131.138 306.246 132.081C306.439 133.024 306.439 134.083 306.246 135.26L306.102 136.044H293.555L293.751 134.899H305.029C305.221 133.756 305.166 132.724 304.864 131.802C304.561 130.873 304.059 130.137 303.357 129.593C302.662 129.05 301.809 128.778 300.798 128.778C299.766 128.778 298.783 129.077 297.847 129.676C296.919 130.268 296.121 131.059 295.453 132.05C294.793 133.041 294.353 134.131 294.133 135.322L294.009 135.962C293.789 137.324 293.816 138.525 294.091 139.564C294.373 140.596 294.896 141.404 295.66 141.989C296.423 142.567 297.421 142.856 298.652 142.856C299.512 142.856 300.275 142.712 300.943 142.423C301.617 142.127 302.188 141.769 302.655 141.349C303.13 140.93 303.502 140.524 303.77 140.131L304.812 140.596C304.496 141.126 304.041 141.656 303.45 142.185C302.858 142.708 302.146 143.145 301.314 143.496C300.482 143.847 299.543 144.023 298.497 144.023Z" fill="#080808"/>
<defs>
<linearGradient id="paint0_linear_19402_11322" x1="162.5" y1="0" x2="162.5" y2="155" gradientUnits="userSpaceOnUse">
<stop offset="0.225962" stop-color="#F6F6F6"/>
<stop offset="0.567308" stop-color="#4097FF"/>
<stop offset="0.798077" stop-color="#E7A0DC"/>
<stop offset="1" stop-color="#F61D2C"/>
</linearGradient>
</defs>
</svg>
